<svg width="21" height="24" viewBox="0 0 21 24" fill="none" xmlns="http://www.w3.org/2000/svg">
<path fill-rule="evenodd" clip-rule="evenodd" d="M19.3757 6.17577C19.5471 6.00365 19.8055 5.95224 20.0297 6.04569C20.2538 6.13864 20.3999 6.35737 20.4 6.6V23.4C20.4001 23.5592 20.3369 23.7118 20.2244 23.8244C20.1118 23.9369 19.9592 24.0001 19.8 24H0.6C0.440841 24.0001 0.288173 23.9369 0.175631 23.8244C0.0630881 23.7118 -9.53652e-05 23.5592 1.08041e-07 23.4V6.6C2.77703e-05 6.35734 0.146213 6.13859 0.370399 6.04574C0.594586 5.95288 0.852633 6.0042 1.02423 6.17577L1.2 6.35157V1.8C1.1999 1.64084 1.26309 1.48817 1.37563 1.37563C1.48817 1.26309 1.64084 1.1999 1.8 1.2H9C9.15916 1.1999 9.31183 1.26309 9.42437 1.37563C9.53691 1.48817 9.6001 1.64084 9.6 1.8V6.35157L9.77577 6.17577C10.0101 5.9415 10.3899 5.9415 10.6242 6.17577L10.8046 6.35619C10.8519 3.23826 11.8132 0 14.4 0C17.0543 0 18 3.40956 18 6.6V7.55157L19.3757 6.17577ZM14.4 1.2C12.0668 1.2 12 6.04746 12 6.6V7.55157L12.6 8.15157L14.5758 6.17577C14.8101 5.9415 15.1899 5.9415 15.4242 6.17577L16.8 7.55157V6.6C16.8 6.04746 16.7332 1.2 14.4 1.2ZM2.4 2.4H8.4V7.55157L7.8 8.15157L5.82423 6.17577C5.58992 5.9415 5.21008 5.9415 4.97577 6.17577L3 8.15157L2.4 7.55157V2.4ZM1.2 22.8H19.2V8.04843L17.8242 9.42423C17.5899 9.6585 17.2101 9.6585 16.9758 9.42423L15 7.44843L13.0242 9.42423C12.7899 9.6585 12.4101 9.6585 12.1758 9.42423L10.2 7.44843L8.22423 9.42423C7.98992 9.6585 7.61008 9.6585 7.37577 9.42423L5.4 7.44843L3.42423 9.42423C3.18992 9.6585 2.81008 9.6585 2.57577 9.42423L1.2 8.04843V22.8Z" fill="#A5A9AE"/>
</svg>
