<svg width="16" height="21" viewBox="0 0 16 21" fill="none" xmlns="http://www.w3.org/2000/svg">
<path fill-rule="evenodd" clip-rule="evenodd" d="M7.59455 20.0119C3.90273 20.0119 0.75 19.4374 0.75 17.1366C0.75 14.8359 3.88273 12.7119 7.59455 12.7119C11.2864 12.7119 14.4391 14.8153 14.4391 17.1161C14.4391 19.4159 11.3064 20.0119 7.59455 20.0119Z" stroke="#808080" stroke-width="1.5" stroke-linecap="round" stroke-linejoin="round"/>
<path fill-rule="evenodd" clip-rule="evenodd" d="M7.58725 9.52364C10.01 9.52364 11.9736 7.56 11.9736 5.13727C11.9736 2.71455 10.01 0.75 7.58725 0.75C5.16452 0.75 3.19998 2.71455 3.19998 5.13727C3.1918 7.55182 5.1418 9.51546 7.55634 9.52364C7.56725 9.52364 7.57725 9.52364 7.58725 9.52364Z" stroke="#808080" stroke-width="1.5" stroke-linecap="round" stroke-linejoin="round"/>
</svg>
