<?xml version="1.0" encoding="UTF-8"?>
<svg id="Layer_1" data-name="Layer 1" xmlns="http://www.w3.org/2000/svg" viewBox="0 0 23.77 20.81">
  <path d="M11.76.02s-.11.08-.16.14c-.06.08-.07.13-.06.24.06.41.63.41.69,0,.01-.12,0-.16-.08-.26-.11-.12-.27-.16-.39-.11ZM11.79.15s-.04.12-.05.18c-.01.07-.04.13-.07.14-.07.02-.05-.14.03-.27.07-.12.13-.16.09-.05Z"/>
  <path d="M11.21.81c-.38.05-.92.17-1.29.29-.44.14-1.25.55-1.66.84-.43.31-1.19,1.07-1.5,1.5-.22.31-.68,1.18-.76,1.45l-.04.12h5.89s5.89-.02,5.89-.02h-5.84s-5.84-.02-5.84-.02l.02-.1c.05-.2.39-.85.64-1.23C8.59.83,12.32.02,15.19,1.8c1.03.64,1.79,1.5,2.36,2.66.25.52.33.63.22.28-.16-.48-.59-1.2-1.06-1.76-.92-1.09-2.28-1.87-3.74-2.13-.38-.07-1.39-.1-1.76-.05Z"/>
  <path d="M11.33,1.19c-.36.04-.82.14-1.1.23-1.34.44-2.43,1.4-3.06,2.69-.17.34-.19.49-.07.49.04,0,.08-.02.1-.05.01-.03.11-.22.2-.43.3-.63.66-1.11,1.2-1.6.26-.24.76-.58,1.08-.74.54-.27,1.27-.47,1.89-.52.17-.01.31-.04.31-.05,0-.03-.33-.04-.55,0Z"/>
  <path d="M5.85,5.16c-.1.07-.1.14,0,.23.07.07.12.07,6.04.07s5.97,0,6.04-.07c.09-.09.09-.15,0-.22-.06-.06-.53-.06-6.04-.06s-5.98,0-6.05.06ZM7.42,5.24c.38.01.69.04.67.05-.05.05-2.09.09-2.12.04-.07-.12.12-.13,1.45-.09Z"/>
  <path d="M1.6,6.92c-.05.05-.05.09-.02.14.02.04.04.07.05.07s.41.07.9.16c.49.09,1.07.18,1.28.21.22.03.43.06.47.07s.07,0,.05-.01c-.04-.04-.54-.18-1.61-.44-.52-.13-.97-.24-1-.25-.03,0-.09.01-.12.05Z"/>
  <path d="M21.05,7.11c-1.24.32-1.57.41-1.62.45-.02.02,0,.02.07.01.06-.01.4-.06.76-.12.36-.06.93-.15,1.26-.21.33-.06.6-.11.61-.11s.03-.03.05-.07c.03-.06.03-.09-.02-.14-.03-.04-.07-.07-.08-.06-.01,0-.48.12-1.03.26Z"/>
  <path d="M16.13,7.23c-.21.71-.26,1.97-.1,2.58.26.98.91,1.46,1.8,1.34.33-.04.56-.16.75-.37.33-.35.44-.71.46-1.5.02-.61-.01-1-.14-1.7-.09-.47-.04-.44-.49-.37-.2.03-.26.05-.26.09.31,1.3.26,2.51-.12,2.84-.32.28-.66.14-.84-.33-.07-.19-.08-.27-.08-.92,0-.61.02-.76.09-1.12.05-.22.09-.42.08-.42,0-.01-.27-.05-.58-.1-.31-.05-.56-.09-.57-.09s-.01.03-.02.06Z"/>
  <path d="M10.76,7.26c-.45.02-.86.05-.9.05h-.09s.02,1.56.02,1.56c.01.86.03,1.7.04,1.86l.02.31.47.02c.26.01.74.03,1.08.04l.61.02.02-.12c.01-.07.03-.26.04-.42l.02-.3-.51.02c-.28.01-.59.03-.69.04l-.19.02v-.26c0-.15.01-.37.02-.5.02-.22.02-.23.12-.22.05,0,.31.01.57.02l.47.02v-.41c0-.22-.01-.41-.02-.42-.02-.01-.45.03-.98.09l-.14.02v-.24c0-.13.01-.31.02-.4l.02-.17h.57s.57-.02.57-.02v-.35s.02-.34.02-.34h-.19c-.1,0-.55.03-1.01.05Z"/>
  <path d="M12.81,7.27l-.37.06v.52c.01.48.05,1.39.1,2.68l.02.53.09-.02s.27-.04.49-.06c.3-.03.4-.06.4-.1,0-.03-.02-.43-.05-.89-.03-.46-.05-.84-.04-.85,0,0,.28.44.6.99l.59,1.01h.29c.2,0,.3-.01.32-.05.05-.09.44-3.74.4-3.78-.01-.01-.26-.03-.54-.04-.48-.02-.52-.02-.51.04.03.14.05,2.18.03,2.18-.02,0-.33-.51-.7-1.14-.37-.63-.69-1.13-.71-1.13-.02,0-.21.03-.41.06Z"/>
  <path d="M8.57,7.27h-.48s-.49,1.07-.49,1.07c-.27.59-.5,1.07-.51,1.07s-.21-.48-.44-1.07l-.43-1.07h-.22c-.12,0-.41.01-.65.02l-.43.02-.02.82c-.01.45-.03,1.32-.04,1.93l-.02,1.11h1.05v-1.13c-.02-.62-.02-1.12,0-1.11,0,.01.21.49.45,1.06l.44,1.04h.61l.37-.85c.2-.47.41-.93.45-1.02l.09-.17-.02,1.06-.02,1.06h1.14l-.02-.14c-.01-.07-.08-.93-.15-1.91s-.14-1.78-.15-1.8c-.01-.01-.24-.01-.5,0Z"/>
  <path d="M1.69,8.71s-.04.1-.03.15c.01.09.03.1.19.12.47.07,2.03.07,1.97.01,0,0-.25-.05-.54-.09-.55-.08-1.33-.2-1.46-.23-.04-.01-.09,0-.12.04Z"/>
  <path d="M21.71,8.72c-.14.03-.58.1-1,.16-.41.06-.75.11-.76.12-.07.06,1.5.06,1.97-.01.16-.02.18-.04.19-.12.01-.11-.05-.21-.11-.2-.02,0-.15.03-.29.05Z"/>
  <path d="M2.73,10.37c-.26.04-.83.2-.9.25-.08.07-.06.24.04.28.07.04.14.02.38-.09.31-.14.79-.27,1.23-.34.14-.02.26-.06.26-.07,0-.07-.62-.09-1.01-.03Z"/>
  <path d="M20.14,10.36c-.19.02-.14.07.14.12.45.08.91.21,1.22.34.26.11.32.12.39.09.07-.03.09-.06.08-.16-.01-.14-.08-.17-.55-.3-.34-.09-1-.14-1.28-.1Z"/>
  <path d="M11.9,12.52c-.31.16-.51.53-.54.98-.02.32.04,1.07.1,1.22.02.06.02.09,0,.07-.02-.01-.07-.11-.11-.22-.07-.17-.08-.27-.08-.63q0-.43-.05-.23c-.09.35-.1.78-.04,1,.09.28.19.42.46.58.13.08.26.18.28.22.04.07.06.08.17.06.07-.01.18-.06.23-.12.06-.05.17-.14.26-.19.23-.15.34-.37.36-.74.02-.33-.04-.59-.19-.97-.05-.12-.08-.22-.07-.23,0,0,.06.07.11.18s.11.19.11.18c.02-.02-.16-.49-.26-.7-.14-.27-.25-.41-.39-.47-.15-.07-.22-.07-.36,0Z"/>
  <path d="M1.22,12.57s.2.47.44.94l.44.86-1.04.26C.5,14.77.01,14.9,0,14.92c-.04.03,1.89,1,2.55,1.28l.5.21v.38c.02.47.04.5.49.8,1.38.92,3.55,1.52,6.35,1.74.28.02.52.04.52.05s-.08.11-.18.25c-.1.14-.2.29-.21.34-.06.26.27.61.57.61.16,0,.29-.17.5-.68l.21-.48h.21c.24-.02.23-.06.15.56-.07.49-.04.67.12.75.34.18.74.05.8-.25.01-.06,0-.28-.03-.48-.03-.21-.05-.43-.05-.49v-.12h.2s.2.02.2.02l.14.32c.32.73.33.75.45.8.32.13.76-.23.69-.57-.01-.05-.11-.21-.23-.35l-.21-.26.28-.02c1.97-.19,3.58-.52,4.75-.98.7-.27,1.65-.81,1.86-1.05.04-.04-.05.01-.2.12-1.28.95-3.48,1.59-6.33,1.84-.7.06-3.02.08-3.72.04-2.15-.15-3.8-.46-5.23-.98-.73-.27-1.81-.87-1.95-1.09-.04-.06-.06-.36-.09-1.25-.02-.65-.04-1.2-.05-1.24,0-.04.02-.07.07-.1.06-.02.21.02.59.16,1.99.73,4.2,1.3,5.79,1.51,2.14.28,3.88.24,5.79-.14,1.22-.25,2.04-.48,3.97-1.12.73-.24,1.34-.44,1.36-.44.03,0,.04.38.05,1.29,0,.71.01,1.12.02.91l.02-.38.5-.21c.67-.29,2.59-1.25,2.55-1.28-.01-.01-.5-.14-1.07-.28l-1.04-.26.44-.86c.25-.47.44-.9.44-.94,0-.1,0-.1-.76.25-.86.4-1.99.91-2.5,1.13-.5.21-.64.32-.78.58-.09.16-.1.23-.11.47v.28l-.32.1c-1.5.49-2.89.8-4.2.95-.77.08-.77.08-.57-.14l.12-.13.26.02c.19.02.27.01.32-.02.03-.02.37-.5.74-1.06s.71-1.04.73-1.07c.06-.07.06-.1,0-.1-.02,0-.31.35-.63.77-.32.42-.6.77-.61.79s-.05,0-.07-.02c-.03-.03.11-.27.52-.87.31-.46.55-.86.55-.88-.01-.04-.24.24-.99,1.22-.25.33-.32.39-.37.31-.01-.02.22-.41.51-.85s.54-.83.54-.85c.04-.13-.14.07-.65.76-.44.59-.61.79-.65.77-.03-.01-.05-.04-.04-.06.01-.02.25-.4.54-.83s.52-.8.52-.82c0-.09-.08,0-.29.28-.12.17-.46.63-.76,1.02-.29.39-.55.76-.57.81-.03.09-.02.12.06.28.05.1.1.21.1.26,0,.1-.09.25-.25.41-.11.11-.12.12-.43.12h-.32v-.71l-.07.07s-.09.06-.1.06c-.04-.02-.07.16-.07.39v.19h-.34s-1.08-1.53-1.08-1.53c-1.08-1.54-1.18-1.65-1.36-1.62-.07.01-.08.03-.07.15.01.18.04.25.32.81.21.42.71,1.3,1.07,1.85.09.13.15.25.14.26-.02.02,0,.05-.24-.28-.39-.54-.84-1.29-1.19-2-.22-.45-.23-.47-.2-.3.08.4.48,1.21,1.08,2.18.22.35.22.36.13.37-.11.01-1.01-.11-1.66-.23-.84-.15-2.14-.48-3.13-.78-.04-.01-.05-.08-.05-.29,0-.24-.02-.31-.11-.47-.14-.26-.28-.36-.78-.58-.24-.1-1.06-.47-1.82-.82s-1.4-.64-1.41-.64c-.01,0-.02.04-.02.07ZM2.15,12.97c.42.2,1.11.52,1.54.71.43.19.9.41,1.05.48.32.17.47.34.53.64.04.21.02.44-.04.44-.05,0-.04-.06,0-.09.06-.04,0-.36-.1-.58l-.09-.2v.12c-.02.07-.04.14-.06.16-.09.11-.55.07-1.29-.09-.44-.1-.62-.12-.38-.03.06.02.11.05.1.05s-.06,0-.13-.02c-.09-.03-.14-.03-.22,0l-.11.04.02.34c.05.89.06,1.32.03,1.32-.15,0-2.74-1.28-2.67-1.32.02-.01.46-.12.97-.25s.93-.23.95-.25c.01-.01-.18-.43-.44-.94-.25-.5-.45-.91-.45-.91s.36.16.77.36ZM21.95,13.52c-.26.5-.47.93-.47.94,0,.02.02.03.05.03.07,0,1.8.42,1.88.45.05.02-.17.14-.91.52-.54.27-1.16.57-1.38.66l-.41.18v-.87s-.02-.87-.02-.87h-.08s-.46.13-.92.28c-1,.34-1.02.34-.82.25.09-.04.49-.18.89-.32s.75-.27.77-.29c.02-.02,0-.03-.07-.01-.95.23-1.55.3-1.66.2-.03-.02-.06-.1-.07-.17v-.13s-.11.2-.11.2c-.11.24-.16.49-.1.6.02.05.03.07,0,.07-.06,0-.08-.23-.04-.44.05-.24.2-.45.4-.57.09-.05.62-.3,1.18-.55.57-.26,1.31-.6,1.65-.76s.64-.3.65-.3-.18.41-.43.91ZM4.1,14.81c.63.21.9.32.83.32-.05,0-1.44-.49-1.47-.52-.03-.03.03-.01.64.19Z"/>
  <path d="M4.29,16.4q-.2.48-.03.53c.18.06.39.06.49.01.25-.13.32-.32.21-.58-.08-.18-.2-.27-.39-.3l-.14-.02-.15.35ZM4.72,16.18c.23.1.31.45.13.63-.09.09-.14.1-.28.1-.21,0-.36-.05-.36-.12,0-.04.1-.31.21-.59.04-.09.13-.1.3-.03Z"/>
  <path d="M19.03,16.14c-.13.06-.17.12-.14.24.02.11.16.17.36.17.24,0,.34.05.34.18,0,.22-.34.31-.53.12-.08-.07-.11-.09-.11-.05,0,.1.17.21.34.21.18,0,.37-.14.37-.27,0-.15-.11-.21-.38-.24s-.33-.06-.33-.18c0-.15.27-.21.39-.08.04.04.08.06.1.05.03-.04-.11-.16-.21-.18-.05-.01-.14,0-.21.03Z"/>
  <path d="M5.49,16.37s.03.04.07.04.07,0,.07,0c0,0-.06.18-.12.4-.12.37-.12.39-.21.38-.14-.02-.11.05.02.07.06.01.15.03.2.05.04.01.08,0,.08-.01,0-.02-.03-.04-.07-.05-.09-.02-.08-.06.07-.5.09-.29.12-.31.26-.25.03.01.06.01.06-.01,0-.04-.12-.08-.33-.13-.06-.01-.1,0-.1.01Z"/>
  <path d="M18.08,16.71c-.09.17-.17.3-.18.3-.01,0-.05-.1-.09-.23s-.08-.24-.1-.26-.02.01-.01.06c.01.05.07.25.12.45.05.21.12.38.15.39.04.01.04,0,.02-.05-.06-.14-.06-.26,0-.37.03-.06.07-.11.08-.11s.1.07.2.16c.21.19.3.24.32.2.01-.02-.05-.07-.13-.12-.09-.05-.2-.14-.26-.2l-.1-.11.1-.2c.1-.21.11-.23.07-.23-.02,0-.1.14-.18.3Z"/>
  <path d="M6.43,16.72c-.12.14-.07.26.19.45.21.15.23.26.09.36-.07.05-.11.05-.2.02-.17-.06-.24-.14-.24-.28,0-.06-.01-.12-.04-.12-.05,0-.05.2,0,.29.07.14.4.23.52.15.07-.05.12-.18.1-.26-.01-.04-.11-.14-.21-.21-.21-.16-.26-.25-.2-.33.1-.12.39-.01.39.15,0,.05.02.09.04.09.05,0,.05-.09,0-.18-.04-.07-.23-.17-.33-.17-.03,0-.07.03-.11.06Z"/>
  <path d="M17.11,16.69s.13.53.17.65c.02.05.03.1.02.1-.04,0-.38-.28-.58-.47-.1-.1-.2-.17-.21-.16-.02.02.11.79.15.91.07.22,0-.45-.08-.72-.01-.04.16.08.38.26.39.32.49.38.44.26-.08-.19-.16-.45-.2-.63-.04-.17-.11-.31-.11-.2Z"/>
  <path d="M7.48,16.91s-.04.25-.09.45c-.1.42-.1.4-.06.4.01,0,.05-.1.07-.21q.05-.24.41-.16c.23.05.23.04.18.35-.01.1-.01.17,0,.17.03,0,.15-.72.15-.88,0-.05-.01-.07-.04-.06-.02.01-.04.1-.04.2s-.01.18-.02.19c-.03.02-.54-.06-.57-.09,0-.01,0-.09.02-.17.05-.2.05-.25,0-.25-.02,0-.04.04-.04.08Z"/>
  <path d="M15.71,16.95c-.15.04-.18.1-.06.09.07,0,.08.02.12.28.02.16.05.33.07.39.02.1,0,.12-.07.14-.05.01-.08.04-.07.06.01.02.06.02.12,0,.05-.02.1-.04.11-.04.05.02.15,0,.15-.03,0-.02-.03-.04-.07-.04-.07,0-.11-.1-.17-.5q-.05-.32.07-.32c.06,0,.11-.02.11-.04,0-.04-.11-.04-.29,0Z"/>
  <path d="M8.64,17.43c-.04.19-.07.39-.08.44-.02.09-.01.09.17.11.1.01.25.03.33.05.1.02.13.01.11-.01-.02-.02-.15-.05-.28-.07-.13-.02-.25-.04-.26-.05-.01,0,0-.08.01-.15l.03-.14h.22c.12,0,.22-.01.22-.02s-.1-.04-.21-.05l-.21-.02.02-.13c.04-.23.03-.22.29-.2.16.02.23.01.21-.01-.02-.02-.14-.04-.27-.06l-.23-.02-.06.34Z"/>
  <path d="M14.66,17.11c-.07.01-.08.03-.06.13,0,.06.03.21.04.33.04.42.06.52.09.49.01-.02.02-.11,0-.2-.03-.19-.02-.2.23-.25.1-.02.11-.01.21.15.1.18.17.25.17.18,0-.02-.05-.11-.11-.21l-.11-.18.07-.07c.1-.1.1-.18,0-.3-.06-.08-.1-.09-.26-.09-.1,0-.22.01-.27.02ZM15.11,17.18s.08.09.08.16c0,.09-.02.11-.13.16-.07.03-.18.06-.25.07q-.11.02-.14-.17c-.01-.1-.01-.2,0-.21.08-.08.33-.09.43-.01Z"/>
  <path d="M9.86,17.28c-.09.06-.1.18-.03.27.02.03.13.11.25.17.23.13.27.19.19.31-.12.18-.48.07-.53-.17-.01-.08-.03-.1-.06-.07-.02.02-.02.07.02.17.09.22.39.3.57.16.17-.14.1-.31-.19-.45-.18-.09-.26-.2-.21-.3.08-.15.42-.03.42.14,0,.04.01.05.04.02.06-.06-.02-.17-.15-.24-.13-.07-.21-.07-.31,0Z"/>
  <path d="M13.48,17.27l-.1.04v.88h.09c.2,0,.42-.08.54-.21.12-.11.12-.14.11-.3-.02-.2-.12-.33-.3-.41-.13-.06-.2-.06-.34,0ZM13.84,17.35c.11.06.25.25.25.35,0,.2-.19.35-.49.4l-.15.02-.02-.37c-.02-.33-.02-.37.04-.41.09-.06.24-.06.37,0Z"/>
  <path d="M11.69,17.39c-.07.07-.07.17-.01.26.04.06.03.08-.05.17-.14.15-.16.24-.05.35s.18.11.33.02c.11-.07.11-.07.18,0,.1.1.15.05.05-.06-.08-.08-.08-.09-.02-.17.03-.05.04-.1.02-.11s-.05.02-.08.08l-.04.1-.1-.12c-.12-.15-.12-.16-.03-.27.08-.1.09-.19.03-.25s-.16-.05-.22.01ZM11.89,17.45s-.01.1-.05.15c-.09.11-.14.07-.14-.1,0-.08.01-.1.09-.1.05,0,.09.02.1.05ZM11.87,17.93l.1.13-.08.07s-.11.06-.15.06c-.07,0-.18-.09-.18-.16,0-.06.14-.23.18-.23.01,0,.07.06.12.13Z"/>
</svg>