<?xml version="1.0" encoding="UTF-8"?>
<svg id="Layer_1" data-name="Layer 1" xmlns="http://www.w3.org/2000/svg" viewBox="0 0 23.9 23.9">
  <defs>
    <style>
      .cls-1 {
        fill: #34b447;
      }
    </style>
  </defs>
  <path class="cls-1" d="M11.95,0C5.35,0,0,5.35,0,11.95s5.35,11.95,11.95,11.95,11.95-5.35,11.95-11.95S18.55,0,11.95,0ZM12.01,18.01c-1.03,0-2.03-.25-2.93-.73h0s-3.38.91-3.38.91l.96-3.25c-.54-.93-.83-1.99-.83-3.07,0-3.41,2.78-6.14,6.18-6.14s6.18,2.74,6.18,6.14-2.78,6.14-6.18,6.14Z"/>
  <path class="cls-1" d="M11.94,6.9h.02c-2.81,0-5.09,2.25-5.09,5.04,0,1.08.34,2.08.92,2.9l-.55,1.86,1.93-.52c.79.52,1.75.82,2.77.82,2.81,0,5.09-2.26,5.09-5.05s-2.28-5.05-5.09-5.05ZM14.85,14.33c-.17.23-.49.43-.89.51-.86.18-1.94-.28-2.95-.99-.21-.15-.4-.31-.58-.48-.5-.48-.89-1.02-1.16-1.49h0c-.3-.51-.5-1.11-.42-1.51.18-.91.66-1.13.79-1.17h.52c.07.02.13.06.16.12l.6,1.35c.03.06.02.13-.02.18-.16.2-.31.38-.47.58-.04.06-.05.13-.02.19.51.92,1.3,1.5,2.25,1.91.07.03.16,0,.21-.05.18-.23.38-.47.56-.7.05-.06.14-.08.21-.05.45.21.86.44,1.31.65.06.03.1.09.1.16,0,.17.01.5-.19.79Z"/>
</svg>